<?xml version="1.0" encoding="UTF-8"?>
<!DOCTYPE svg PUBLIC "-//W3C//DTD SVG 1.1//EN" "http://www.w3.org/Graphics/SVG/1.1/DTD/svg11.dtd">
<!-- Creator: CorelDRAW 2020 (64-Bit) -->
<svg xmlns="http://www.w3.org/2000/svg" xml:space="preserve" width="1000mm" height="1000mm" version="1.1" style="shape-rendering:geometricPrecision; text-rendering:geometricPrecision; image-rendering:optimizeQuality; fill-rule:evenodd; clip-rule:evenodd"
viewBox="0 0 99991.74 99991.74"
 xmlns:xlink="http://www.w3.org/1999/xlink"
 xmlns:xodm="http://www.corel.com/coreldraw/odm/2003">
 <defs>
  <style type="text/css">
   <![CDATA[
    .fil0 {fill:#FEFEFE}
    .fil1 {fill:black}
   ]]>
  </style>
 </defs>
 <g id="Layer_x0020_1">
  <metadata id="CorelCorpID_0Corel-Layer"/>
  <g id="_2285820392528">
   <rect class="fil0" width="99991.74" height="99991.74"/>
   <path class="fil1" d="M77688.45 41987.79c488.1,-204.72 961.81,-371.55 1421.21,-500.36 856.79,-60.7 1561.94,156.11 2210.06,812.55 430.8,389.03 1643.66,1078.61 2590.33,788.04 455.18,-167.73 737.87,-483.79 1402.63,-676.52 327.02,-35.4 718.98,-328.64 1175.92,-879.77 932.15,-186.5 1057.21,-715.38 375.25,-1586.55 -368.53,-521.31 -718.74,-1242.77 -1050.74,-2164.38 -481.33,-2284.68 -1483.78,-2989.28 -3563.4,-3867.67 -923.41,-1277.98 -1967.13,-1916.94 -2699.56,-2056.14 -381.77,247.94 -508.07,625.66 -378.79,1133.14 -1110.74,115.86 -2874.37,313.92 -4382.99,459.34 -3642.75,351.21 -8322.51,-2117.83 -10433.47,1823.1 -489.61,914.09 -1410.39,2442.81 -2189.83,2948.29 748.05,-928.72 1470.8,-2472.54 1560.35,-3123.96 -5175.56,2639.11 -8828.44,4167.31 -12263.78,4831.07 -3605.45,890.73 -6129.56,1429.96 -7960.47,2101.1 -2722.19,-939.89 -5629.74,-1161.19 -8729.52,-604.08 -4101.08,736.85 -13157.69,6814.13 -16811.06,5076.39 -2972.09,-1413.65 -1656.8,-4351.48 -1143,-6611.7 647.59,-2848.8 -2382.22,-3360.56 -3342.36,-644.77 -1557.13,4402.68 -781.63,7591.13 2326.38,9565.08 8152.31,5178 17043.13,-6624.97 24628.17,-4232.47 -1125.09,1575.85 -1861.66,3566.49 -2186.8,5773.88 -923.56,2146.47 -2159.19,3642.42 -3706.69,4487.68 -1450.16,792.07 -1890.68,512.38 -2330.14,839.7 -248.87,185.34 -582.42,605.82 -1149.61,1508.25 -1844.14,2933.93 -3752.05,4972.19 -6076.24,6225.05 -2581.56,1248.9 -2910.64,2968 -2330.7,3956.97 705.59,1203.3 2902.62,1307.72 5870.65,-2060.93 4339.56,-4691.75 7408.67,-7538.78 9207.16,-8540.91 -975.29,976.81 -1651.49,1678.69 -2085.53,2251.43 7299.59,-1715.47 13497.41,-4882.79 16980.08,-9765.64 987.31,-1249.95 2095.78,-2151.88 3325.23,-2705.81 -796.09,709.46 -1314.35,1332.06 -1554.67,1867.77 1860.43,-792.49 3800.68,-1052.91 5820.72,-781.26 1091.39,23.81 1981.4,-3.43 3116.24,-45.23 1051.61,-1114.76 1981.5,-2252.09 4252.7,-3435.83l-0.79 2.05c-4514.24,3482.62 -5197.85,5702.48 -2049.46,6659 815.34,247.74 1943.43,18.29 2766.67,-86.24 2414.17,-306.57 5243.38,-278.77 8487.44,83.36 1466.93,-28.89 2230.07,366.01 2289.58,1184.71 -184.97,2068.75 158.8,3123.67 1031.5,3164.88 1706.4,-185.11 2230.07,-1422.63 1570.9,-3712.54 -864.59,-2753.23 -2028.5,-4212.91 -3491.65,-4379.16 -1683.76,222.12 -2962.32,224.58 -3832.24,-22 -181.92,-51.53 -667.75,-154.97 -637,-383.5 34.53,-256.76 757.07,-320.87 1574.77,-872.59 992.44,-669.58 2118.89,-1821.91 2396.54,-3802.83z"/>
  </g>
 </g>
</svg>
